<?xml version="1.0" standalone="no"?><!DOCTYPE svg PUBLIC "-//W3C//DTD SVG 1.1//EN" "http://www.w3.org/Graphics/SVG/1.1/DTD/svg11.dtd"><svg t="1706314684219" class="icon" viewBox="0 0 1024 1024" version="1.1" xmlns="http://www.w3.org/2000/svg" p-id="2069" xmlns:xlink="http://www.w3.org/1999/xlink" width="200" height="200"><path d="M310.462487 1.683864c-19.36444 13.049949 13.049949 35.571634 25.889414 48.621583 25.889414 45.464337 3.157246 81.035971-22.732168 113.45036 38.939363 3.157246 81.035971-16.207194 119.975334-25.889414 19.36444-16.207194 45.253854-29.257143 35.571634-61.671532-42.096608-48.621583-97.243165-84.193217-158.914697-74.510997zM653.970812 241.424049c29.257143 35.782117 35.782117 81.035971 90.718191 81.035972 16.207194 16.207194 29.257143-6.524974 35.571634-19.36444 48.621583 13.049949 74.510997-55.146557 132.8148-42.096609a93.033505 93.033505 0 0 0 13.049948-87.560945c-32.414388-29.04666-71.353751-13.049949-106.925385-19.36444l-3.367729 19.36444a90.297225 90.297225 0 0 1-67.986022 45.464337c-48.621583-29.257143 13.049949-67.986023-6.524975-103.76814-13.049949-35.782117-61.671531-25.889414-77.878725 0-45.464337 25.889414 16.207194 55.146557 16.207194 87.560946-3.157246 19.36444-35.571634 16.207194-25.889414 38.939362zM440.120041 357.821172c-22.732169-29.04666-51.778828 0-81.035971-19.36444-22.732169 55.146557-77.878726 77.878726-126.289825 93.875437-13.049949 9.68222-35.571634-3.157246-45.253854 13.049948-45.464337 22.732169-100.400411 16.207194-149.232477 22.732169-9.68222 22.732169-35.571634 48.621583-19.36444 77.878725a57.461871 57.461871 0 0 0 68.196505 29.257143c87.560946-3.157246 142.707503-61.671531 223.743474-87.560945 9.68222-9.68222 29.257143 0 29.257143 16.207194 0 45.464337-9.68222 94.08592-48.621583 110.293114-16.207194 42.096608-58.303803 67.986023-55.146557 113.45036-19.36444 35.571634-67.986023 32.414388-100.400411 32.414388v22.732169c42.096608 35.571634 19.36444 100.400411 58.303803 132.814799l44.832888-31.572456c58.303803-32.414388 19.36444-97.243165 81.035971-126.289825 13.049949 0 29.257143-3.157246 35.782117 9.68222 3.157246 16.207194-6.524974 22.732169-3.157245 35.571634-55.35704 47.990134-51.989311 123.13258-39.149846 186.277492 16.207194 35.571634 55.146557 35.571634 87.560945 32.414389 51.778828-58.303803 6.524974-152.389723 25.889414-226.90072-29.04666-32.414388 19.36444-58.303803 0-87.560945-38.939363-67.986023 13.049949-129.657554 38.939363-191.329086-87.560946-44.201439 31.572456-105.87297-25.889414-158.072764zM709.117369 458.642549c19.36444 19.36444 48.621583 48.621583 48.621583 77.878725 32.414388-6.524974 71.353751 0 100.400411-19.364439l-16.207194-58.303803c-35.782117-13.049949-97.243165-35.782117-132.8148 0zM994.321891 717.957657c-6.524974-42.096608-67.986023-51.778828-61.671531-94.08592l-19.36444 16.207194c-6.524974-6.524974-13.049949-9.68222-13.049949-16.207194l-22.732168 9.68222c-29.257143-42.096608-42.096608 16.207194-74.510997 13.049948 3.157246 48.621583-38.939363 35.571634-71.353752 55.146557-38.939363 51.778828-103.76814-6.524974-145.864748 48.621583-35.571634-16.207194-51.778828 42.096608-87.560945 25.889414-13.049949 9.68222-3.367729 29.257143-6.524975 45.464338 35.782117 32.414388 45.464337 123.13258 116.607606 93.875436 22.732169-19.36444 16.207194-51.778828 22.732168-77.878725 19.36444-25.889414 45.464337-51.778828 74.510997-48.621583 3.157246 25.889414 13.049949 55.146557 0 74.510997 32.414388 6.524974 32.414388 45.253854 42.096609 71.353751 38.939363-3.157246 32.414388-58.303803 74.510997-48.621583 35.571634 32.414388-32.414388 64.828777-13.049949 103.76814h16.207194c25.889414-9.68222 58.303803-25.889414 61.671532-48.621583 6.524974-19.36444 35.782117-22.732169 38.939362-35.782117 90.718191-42.096608 25.889414-132.8148 84.193217-187.961356h-15.786228z m-155.546968 87.560945c-9.68222-16.207194-25.889414-9.68222-38.939363-9.68222-3.157246-22.732169-25.889414-45.464337-13.049948-71.353751 25.889414-19.574923 74.510997-48.621583 93.875436-3.157246-9.68222 32.414388-9.68222 77.878726-42.096608 84.193217z" fill="#B61D22" p-id="2070"></path></svg>